<?xml version="1.0" encoding="utf-8"?>
<!-- Generator: Adobe Illustrator 16.0.0, SVG Export Plug-In . SVG Version: 6.00 Build 0)  -->
<!DOCTYPE svg PUBLIC "-//W3C//DTD SVG 1.1//EN" "http://www.w3.org/Graphics/SVG/1.1/DTD/svg11.dtd">
<svg version="1.1" id="Calque_1" xmlns="http://www.w3.org/2000/svg" xmlns:xlink="http://www.w3.org/1999/xlink" x="0px" y="0px"
	 width="199.149px" height="199.148px" viewBox="0 0 199.149 199.148" enable-background="new 0 0 199.149 199.148"
	 xml:space="preserve">
<g>
	<path fill="#3F3E3E" d="M99.576,189.148C50.184,189.148,10,148.965,10,99.574S50.184,10,99.576,10
		c49.391,0,89.573,40.182,89.573,89.574S148.967,189.148,99.576,189.148z"/>
	<g>
		<path fill="#FFFFFF" d="M99.576,20c43.877,0,79.573,35.697,79.573,79.574s-35.696,79.574-79.573,79.574
			C55.698,179.148,20,143.451,20,99.574S55.698,20,99.576,20 M99.576,0C44.581,0,0,44.582,0,99.574
			c0,54.994,44.581,99.574,99.576,99.574c54.991,0,99.573-44.58,99.573-99.574C199.149,44.582,154.567,0,99.576,0L99.576,0z"/>
	</g>
</g>
<linearGradient id="SVGID_1_" gradientUnits="userSpaceOnUse" x1="99.8062" y1="18.6548" x2="99.8061" y2="180.4941">
	<stop  offset="0" style="stop-color:#E33D49"/>
	<stop  offset="1" style="stop-color:#EA5E43"/>
</linearGradient>
<circle fill="url(#SVGID_1_)" cx="99.806" cy="99.574" r="80.917"/>
<path fill="#FFFFFF" d="M151.599,99.232c0-13.654-70.531-48.423-77.233-44.59c-6.699,3.834-6.075,81.605,0,89.178
	C80.441,151.398,151.599,112.886,151.599,99.232z"/>
<g>
</g>
<g>
</g>
<g>
</g>
<g>
</g>
<g>
</g>
<g>
</g>
<g>
</g>
<g>
</g>
<g>
</g>
<g>
</g>
<g>
</g>
<g>
</g>
<g>
</g>
<g>
</g>
<g>
</g>
</svg>
