<?xml version="1.0" encoding="utf-8"?>
<!-- Generator: Adobe Illustrator 16.0.0, SVG Export Plug-In . SVG Version: 6.00 Build 0)  -->
<!DOCTYPE svg PUBLIC "-//W3C//DTD SVG 1.1//EN" "http://www.w3.org/Graphics/SVG/1.1/DTD/svg11.dtd">
<svg version="1.1" id="Calque_1" xmlns="http://www.w3.org/2000/svg" xmlns:xlink="http://www.w3.org/1999/xlink" x="0px" y="0px"
	 width="222.945px" height="222.942px" viewBox="0 0 222.945 222.942" enable-background="new 0 0 222.945 222.942"
	 xml:space="preserve">
<g>
	<defs>
		<rect id="SVGID_1_" x="-826.008" y="-451.024" width="1505.2" height="847.56"/>
	</defs>
	<clipPath id="SVGID_2_">
		<use xlink:href="#SVGID_1_"  overflow="visible"/>
	</clipPath>
	<path clip-path="url(#SVGID_2_)" fill="#3F3E3E" d="M112.183,212.901c-55.678,0-100.975-45.297-100.975-100.972
		c0-55.676,45.297-100.972,100.975-100.972c55.676,0,100.972,45.296,100.972,100.972
		C213.154,167.604,167.858,212.901,112.183,212.901"/>
	<path clip-path="url(#SVGID_2_)" fill="#FFFFFF" d="M112.183,21.458c49.887,0,90.472,40.586,90.472,90.472
		s-40.585,90.472-90.472,90.472c-49.889,0-90.475-40.586-90.475-90.472S62.294,21.458,112.183,21.458 M112.183,0.458
		C50.616,0.458,0.708,50.365,0.708,111.93c0,61.565,49.908,111.472,111.475,111.472c61.562,0,111.472-49.906,111.472-111.472
		C223.654,50.365,173.744,0.458,112.183,0.458"/>
</g>
<g>
	<defs>
		<path id="SVGID_3_" d="M21.854,111.929c0,50.031,40.556,90.59,90.587,90.59c50.029,0,90.585-40.559,90.585-90.59
			c0-50.029-40.556-90.588-90.585-90.588C62.41,21.341,21.854,61.899,21.854,111.929"/>
	</defs>
	<clipPath id="SVGID_4_">
		<use xlink:href="#SVGID_3_"  overflow="visible"/>
	</clipPath>
	
		<linearGradient id="SVGID_5_" gradientUnits="userSpaceOnUse" x1="-635.5908" y1="458.8486" x2="-634.5908" y2="458.8486" gradientTransform="matrix(181.1718 0 0 -181.1718 115172.9844 83242.2969)">
		<stop  offset="0" style="stop-color:#E33D49"/>
		<stop  offset="1" style="stop-color:#EA5E43"/>
	</linearGradient>
	<rect x="21.854" y="21.341" clip-path="url(#SVGID_4_)" fill="url(#SVGID_5_)" width="181.172" height="181.178"/>
</g>
<path fill="none" stroke="#FFFFFF" stroke-width="10" stroke-linecap="round" stroke-linejoin="round" stroke-miterlimit="10" d="
	M65.182,67.732c4.054,1.352,90.541,90.542,90.541,90.542"/>
<line fill="none" stroke="#FFFFFF" stroke-width="10" stroke-linecap="round" stroke-linejoin="round" stroke-miterlimit="10" x1="65.182" y1="158.274" x2="155.723" y2="67.732"/>
<g>
</g>
<g>
</g>
<g>
</g>
<g>
</g>
<g>
</g>
<g>
</g>
<g>
</g>
<g>
</g>
<g>
</g>
<g>
</g>
<g>
</g>
<g>
</g>
<g>
</g>
<g>
</g>
<g>
</g>
</svg>
