<?xml version="1.0" encoding="utf-8"?>
<!-- Generator: Adobe Illustrator 16.0.0, SVG Export Plug-In . SVG Version: 6.00 Build 0)  -->
<!DOCTYPE svg PUBLIC "-//W3C//DTD SVG 1.1//EN" "http://www.w3.org/Graphics/SVG/1.1/DTD/svg11.dtd">
<svg version="1.1" id="Calque_1" xmlns="http://www.w3.org/2000/svg" xmlns:xlink="http://www.w3.org/1999/xlink" x="0px" y="0px"
	 width="222.945px" height="222.942px" viewBox="0 0 222.945 222.942" enable-background="new 0 0 222.945 222.942"
	 xml:space="preserve">
<g>
	<defs>
		<rect id="SVGID_1_" x="-480.527" y="-451.481" width="1505.2" height="847.56"/>
	</defs>
	<clipPath id="SVGID_2_">
		<use xlink:href="#SVGID_1_"  overflow="visible"/>
	</clipPath>
	
		<rect x="-480.527" y="-451.481" clip-path="url(#SVGID_2_)" fill="none" stroke="#1D1D1B" stroke-miterlimit="10" width="1505.2" height="847.56"/>
	<path clip-path="url(#SVGID_2_)" fill="#3F3E3E" d="M111.474,212.442c-55.677,0-100.974-45.295-100.974-100.971
		S55.797,10.5,111.474,10.5c55.676,0,100.972,45.296,100.972,100.972S167.149,212.442,111.474,212.442"/>
	<path clip-path="url(#SVGID_2_)" fill="#FFFFFF" d="M111.474,21c49.886,0,90.472,40.586,90.472,90.472
		c0,49.887-40.586,90.471-90.472,90.471C61.585,201.942,21,161.358,21,111.472C21,61.586,61.585,21,111.474,21 M111.474,0
		C49.908,0,0,49.908,0,111.472c0,61.564,49.908,111.471,111.474,111.471c61.563,0,111.472-49.906,111.472-111.471
		C222.945,49.908,173.036,0,111.474,0"/>
</g>
<g>
	<defs>
		<path id="SVGID_3_" d="M21.146,111.472c0,50.029,40.555,90.588,90.586,90.588c50.03,0,90.585-40.559,90.585-90.588
			s-40.555-90.588-90.585-90.588C61.701,20.884,21.146,61.442,21.146,111.472"/>
	</defs>
	<clipPath id="SVGID_4_">
		<use xlink:href="#SVGID_3_"  overflow="visible"/>
	</clipPath>
	
		<linearGradient id="SVGID_5_" gradientUnits="userSpaceOnUse" x1="-633.6836" y1="458.8516" x2="-632.6836" y2="458.8516" gradientTransform="matrix(181.1718 0 0 -181.1718 114826.7344 83242.2969)">
		<stop  offset="0" style="stop-color:#E33D49"/>
		<stop  offset="1" style="stop-color:#EA5E43"/>
	</linearGradient>
	<rect x="21.146" y="20.884" clip-path="url(#SVGID_4_)" fill="url(#SVGID_5_)" width="181.171" height="181.176"/>
</g>
<path fill="none" stroke="#FFFFFF" stroke-width="10" stroke-linecap="round" stroke-linejoin="round" stroke-miterlimit="10" d="
	M55.554,96.897l48.649,70.27c0,0,25.307-101.068,62.162-108.107"/>
<g>
</g>
<g>
</g>
<g>
</g>
<g>
</g>
<g>
</g>
<g>
</g>
<g>
</g>
<g>
</g>
<g>
</g>
<g>
</g>
<g>
</g>
<g>
</g>
<g>
</g>
<g>
</g>
<g>
</g>
</svg>
