<?xml version="1.0" encoding="utf-8"?>
<!-- Generator: Adobe Illustrator 19.2.0, SVG Export Plug-In . SVG Version: 6.00 Build 0)  -->
<svg version="1.1" id="Calque_1" xmlns="http://www.w3.org/2000/svg" xmlns:xlink="http://www.w3.org/1999/xlink" x="0px" y="0px"
	 viewBox="0 0 300 300" style="enable-background:new 0 0 300 300;" xml:space="preserve">
<style type="text/css">
	.st0{fill:#FFFFFF;}
</style>
<g>
	<g>
		<path class="st0" d="M149.5,32.3c31.3,0,60.8,12.2,83,34.4c22.2,22.2,34.4,51.6,34.4,83c0,31.3-12.2,60.8-34.4,83
			c-22.2,22.2-51.6,34.4-83,34.4c-31.4,0-60.8-12.2-83-34.4c-22.2-22.2-34.4-51.6-34.4-83c0-31.4,12.2-60.8,34.4-83
			C88.6,44.5,118.1,32.3,149.5,32.3 M149.5,3.3C68.6,3.3,3.1,68.9,3.1,149.7c0,80.8,65.5,146.4,146.4,146.4
			c80.8,0,146.4-65.5,146.4-146.4C295.8,68.9,230.3,3.3,149.5,3.3L149.5,3.3z"/>
	</g>
</g>
<path class="st0" d="M225.9,149.2c0-20.1-103.7-71.2-113.5-65.5c-9.8,5.6-8.9,120,0,131.1C121.3,225.9,225.9,169.3,225.9,149.2z"/>
</svg>
