<?xml version="1.0" encoding="utf-8"?>
<!-- Generator: Adobe Illustrator 16.0.0, SVG Export Plug-In . SVG Version: 6.00 Build 0)  -->
<!DOCTYPE svg PUBLIC "-//W3C//DTD SVG 1.1//EN" "http://www.w3.org/Graphics/SVG/1.1/DTD/svg11.dtd">
<svg version="1.1" id="Calque_1" xmlns="http://www.w3.org/2000/svg" xmlns:xlink="http://www.w3.org/1999/xlink" x="0px" y="0px"
	 width="362.981px" height="359.98px" viewBox="0 0 362.981 359.98" enable-background="new 0 0 362.981 359.98"
	 xml:space="preserve">
<path fill="none" stroke="#FFFFFF" stroke-width="13" stroke-miterlimit="10" d="M354.516,179.99
	c0,95.564-77.469,173.021-173.025,173.021c-95.569,0-173.025-77.457-173.025-173.021C8.465,84.423,85.921,6.967,181.49,6.967
	C277.047,6.967,354.516,84.423,354.516,179.99z"/>
<g>
	<g>
		<path fill="#FFFFFF" d="M247.125,122.466c35.246,0,38.305,60.853,38.414,63.438l0.201,4.485h-77.488l0.199-4.485
			c0.109-2.582,3.174-63.254,38.525-63.438H247.125z"/>
		<path fill="#FFFFFF" d="M212.746,186.091c0,0,2.588-59.16,34.25-59.327c0.045-0.007,0.09-0.007,0.129-0.007
			c31.545,0,34.119,59.334,34.119,59.334H212.746 M203.764,194.69h8.982h68.498h8.984l-0.387-8.973
			c-0.123-2.759-3.4-67.556-42.717-67.556c-39.576,0.206-42.854,64.807-42.969,67.553L203.764,194.69L203.764,194.69z"/>
	</g>
</g>
<path fill="#1D1D1B" d="M279.533,188.302h1.055c0.406-2.134,0.645-4.336,0.645-6.594c0-19.371-15.711-35.07-35.074-35.07
	c-19.375,0-35.074,15.699-35.074,35.07c0,2.258,0.227,4.46,0.639,6.594H279.533z"/>
<path fill="#FFFFFF" d="M270.75,147.279c0,6.613-5.365,11.974-11.984,11.974c-6.613,0-11.977-5.36-11.977-11.974
	c0-6.616,5.363-11.977,11.977-11.977C265.385,135.302,270.75,140.663,270.75,147.279z"/>
<path fill="#FFFFFF" d="M236.107,179.932c0,3.461-2.814,6.269-6.271,6.269c-3.465,0-6.266-2.808-6.266-6.269
	c0-3.465,2.801-6.269,6.266-6.269C233.293,173.664,236.107,176.467,236.107,179.932z"/>
<g>
	<g>
		<path fill="#FFFFFF" d="M116.507,124.833c-35.255,0-38.307,60.856-38.416,63.441l-0.206,4.491h77.494l-0.199-4.491
			c-0.109-2.585-3.174-63.252-38.525-63.441H116.507z"/>
		<path fill="#FFFFFF" d="M150.885,188.463H82.379c0,0,2.582-59.333,34.128-59.333c0.038,0,0.083,0,0.128,0.003
			C148.297,129.301,150.885,188.463,150.885,188.463 M159.868,197.063l-0.393-8.979c-0.115-2.749-3.399-67.344-42.968-67.549
			c-39.317,0-42.595,64.793-42.718,67.553l-0.386,8.976h8.976h68.506H159.868L159.868,197.063z"/>
	</g>
</g>
<path fill="#1D1D1B" d="M84.092,190.675h-1.049c-0.406-2.141-0.645-4.34-0.645-6.597c0-19.372,15.711-35.073,35.074-35.073
	c19.375,0,35.074,15.701,35.074,35.073c0,2.257-0.227,4.456-0.639,6.597H84.092z"/>
<path fill="#FFFFFF" d="M92.881,149.652c0,6.613,5.364,11.977,11.984,11.977c6.612,0,11.97-5.363,11.97-11.977
	c0-6.619-5.357-11.98-11.97-11.98C98.246,137.671,92.881,143.033,92.881,149.652z"/>
<path fill="#FFFFFF" d="M127.524,182.304c0,3.461,2.809,6.266,6.266,6.266c3.471,0,6.271-2.805,6.271-6.266
	c0-3.467-2.801-6.271-6.271-6.271C130.333,176.033,127.524,178.837,127.524,182.304z"/>
<g>
	<path fill="#FFFFFF" d="M87.188,123.059l-2.971-1.115c2.557-6.811,8.191-11.974,15.865-14.538
		c7.555-2.523,16.214-2.225,24.382,0.845l-1.117,2.971c-7.488-2.815-15.394-3.1-22.259-0.805
		C94.339,112.671,89.403,117.161,87.188,123.059z"/>
</g>
<g>
	<path fill="#FFFFFF" d="M270.334,120.393c-2.215-5.898-7.152-10.388-13.9-12.644c-6.869-2.295-14.771-2.01-22.26,0.803
		l-1.115-2.971c8.166-3.068,16.824-3.366,24.381-0.842c7.674,2.564,13.309,7.728,15.865,14.538L270.334,120.393z"/>
</g>
<path fill="#FFFFFF" d="M265.766,298.517c-0.342-40.712-37.816-73.628-84.037-73.628c-46.22,0-83.695,32.916-84.037,73.628H265.766z
	"/>
<g>
</g>
<g>
</g>
<g>
</g>
<g>
</g>
<g>
</g>
<g>
</g>
<g>
</g>
<g>
</g>
<g>
</g>
<g>
</g>
<g>
</g>
<g>
</g>
<g>
</g>
<g>
</g>
<g>
</g>
</svg>
