<?xml version="1.0" encoding="utf-8"?>
<!-- Generator: Adobe Illustrator 16.0.0, SVG Export Plug-In . SVG Version: 6.00 Build 0)  -->
<!DOCTYPE svg PUBLIC "-//W3C//DTD SVG 1.1//EN" "http://www.w3.org/Graphics/SVG/1.1/DTD/svg11.dtd">
<svg version="1.1" id="Calque_1" xmlns="http://www.w3.org/2000/svg" xmlns:xlink="http://www.w3.org/1999/xlink" x="0px" y="0px"
	 width="362.981px" height="359.98px" viewBox="0 0 362.981 359.98" enable-background="new 0 0 362.981 359.98"
	 xml:space="preserve">
<path fill="none" stroke="#FFFFFF" stroke-width="13" stroke-miterlimit="10" d="M354.91,180.363
	c0,95.565-77.469,173.019-173.025,173.019c-95.569,0-173.025-77.453-173.025-173.019S86.315,7.341,181.885,7.341
	C277.441,7.341,354.91,84.797,354.91,180.363z"/>
<g>
	<g>
		<path fill="#FFFFFF" d="M247.519,122.839c35.247,0,38.306,60.853,38.415,63.438l0.2,4.484h-77.488l0.2-4.484
			c0.109-2.582,3.174-63.255,38.525-63.438H247.519z"/>
		<path fill="#FFFFFF" d="M213.141,186.464c0,0,2.588-59.159,34.249-59.327c0.045-0.006,0.091-0.006,0.129-0.006
			c31.545,0,34.12,59.333,34.12,59.333H213.141 M204.158,195.064h8.982h68.498h8.983l-0.387-8.974
			c-0.122-2.759-3.399-67.556-42.717-67.556c-39.575,0.206-42.853,64.807-42.968,67.553L204.158,195.064L204.158,195.064z"/>
	</g>
</g>
<path fill="#1D1D1B" d="M279.927,188.676h1.056c0.406-2.135,0.645-4.337,0.645-6.594c0-19.372-15.712-35.07-35.074-35.07
	c-19.375,0-35.074,15.698-35.074,35.07c0,2.257,0.226,4.459,0.638,6.594H279.927z"/>
<path fill="#FFFFFF" d="M271.144,147.653c0,6.612-5.364,11.973-11.983,11.973c-6.613,0-11.977-5.36-11.977-11.973
	c0-6.616,5.363-11.977,11.977-11.977C265.779,135.676,271.144,141.037,271.144,147.653z"/>
<path fill="#FFFFFF" d="M236.501,180.305c0,3.461-2.813,6.269-6.271,6.269c-3.464,0-6.265-2.808-6.265-6.269
	c0-3.464,2.801-6.269,6.265-6.269C233.688,174.037,236.501,176.841,236.501,180.305z"/>
<g>
	<g>
		<path fill="#FFFFFF" d="M116.901,125.206c-35.254,0-38.306,60.856-38.416,63.441l-0.206,4.491h77.495l-0.2-4.491
			c-0.109-2.585-3.174-63.251-38.525-63.441H116.901z"/>
		<path fill="#FFFFFF" d="M151.279,188.836H82.774c0,0,2.582-59.332,34.127-59.332c0.039,0,0.084,0,0.129,0.003
			C148.691,129.674,151.279,188.836,151.279,188.836 M160.262,197.436l-0.393-8.979c-0.116-2.75-3.4-67.344-42.968-67.55
			c-39.317,0-42.594,64.794-42.717,67.553l-0.386,8.976h8.976h68.505H160.262L160.262,197.436z"/>
	</g>
</g>
<path fill="#1D1D1B" d="M84.487,191.049h-1.05c-0.406-2.142-0.644-4.34-0.644-6.598c0-19.372,15.711-35.073,35.074-35.073
	c19.375,0,35.074,15.701,35.074,35.073c0,2.258-0.226,4.456-0.638,6.598H84.487z"/>
<path fill="#FFFFFF" d="M93.276,150.025c0,6.613,5.364,11.978,11.983,11.978c6.613,0,11.97-5.364,11.97-11.978
	c0-6.619-5.357-11.979-11.97-11.979C98.64,138.045,93.276,143.406,93.276,150.025z"/>
<path fill="#FFFFFF" d="M127.918,182.678c0,3.461,2.808,6.266,6.265,6.266c3.471,0,6.272-2.805,6.272-6.266
	c0-3.468-2.801-6.271-6.272-6.271C130.726,176.407,127.918,179.21,127.918,182.678z"/>
<path fill="none" stroke="#FFFFFF" stroke-width="3.1735" stroke-miterlimit="10" d="M124.3,110.109
	c-16.182-6.081-33.271-0.373-38.204,12.766"/>
<path fill="none" stroke="#FFFFFF" stroke-width="3.1735" stroke-miterlimit="10" d="M234.01,107.44
	c16.182-6.078,33.271-0.37,38.203,12.77"/>
<path fill="#FFFFFF" d="M98.653,230.076c0.341,40.711,37.817,73.628,84.037,73.628c46.221,0,83.695-32.917,84.037-73.628H98.653z"/>
<g>
</g>
<g>
</g>
<g>
</g>
<g>
</g>
<g>
</g>
<g>
</g>
<g>
</g>
<g>
</g>
<g>
</g>
<g>
</g>
<g>
</g>
<g>
</g>
<g>
</g>
<g>
</g>
<g>
</g>
</svg>
